<svg xmlns="http://www.w3.org/2000/svg" width="33" height="43" viewBox="0 0 33 43">
  <metadata><?xpacket begin="﻿" id="W5M0MpCehiHzreSzNTczkc9d"?>
<x:xmpmeta xmlns:x="adobe:ns:meta/" x:xmptk="Adobe XMP Core 5.6-c138 79.159824, 2016/09/14-01:09:01        ">
   <rdf:RDF xmlns:rdf="http://www.w3.org/1999/02/22-rdf-syntax-ns#">
      <rdf:Description rdf:about=""/>
   </rdf:RDF>
</x:xmpmeta>
                                                                                                    
                                                                                                    
                                                                                                    
                                                                                                    
                                                                                                    
                                                                                                    
                                                                                                    
                                                                                                    
                                                                                                    
                                                                                                    
                                                                                                    
                                                                                                    
                                                                                                    
                                                                                                    
                                                                                                    
                                                                                                    
                                                                                                    
                                                                                                    
                                                                                                    
                                                                                                    
                           
<?xpacket end="w"?></metadata>
<defs>
    <style>
      .cls-1 {
        fill: none;
      }

      .cls-1, .cls-2 {
        stroke: #333;
        stroke-width: 2px;
      }

      .cls-2 {
        fill: #fff;
        fill-rule: evenodd;
      }
    </style>
  </defs>
  <rect id="Rounded_Rectangle_1" data-name="Rounded Rectangle 1" class="cls-1" x="5" y="5" width="27" height="37" rx="2" ry="2"/>
  <path id="Rounded_Rectangle_3" data-name="Rounded Rectangle 3" class="cls-2" d="M189,534a2,2,0,0,1-2-2V499a2,2,0,0,1,2-2h23a2,2,0,0,1,2,2m-25,0h25v35H189V499Z" transform="translate(-186 -496)"/>
  <path id="Rounded_Rectangle_2" data-name="Rounded Rectangle 2" class="cls-2" d="M198.5,512h12a0.5,0.5,0,0,1,.5.5v1a0.5,0.5,0,0,1-.5.5h-12a0.5,0.5,0,0,1-.5-0.5v-1A0.5,0.5,0,0,1,198.5,512Zm0,7h12a0.5,0.5,0,0,1,.5.5v1a0.5,0.5,0,0,1-.5.5h-12a0.5,0.5,0,0,1-.5-0.5v-1A0.5,0.5,0,0,1,198.5,519Zm0,7h12a0.5,0.5,0,0,1,.5.5v1a0.5,0.5,0,0,1-.5.5h-12a0.5,0.5,0,0,1-.5-0.5v-1A0.5,0.5,0,0,1,198.5,526Z" transform="translate(-186 -496)"/>
</svg>
